#usda 1.0
(
    defaultPrim = "root"
    startTimeCode = 1
    endTimeCode = 57
    metersPerUnit = 1
    timeCodesPerSecond = 24
    upAxis = "Y"
)

def Xform "root" (
    references = @Walk.usdz@
)
{
    over "Armature"
    {
        over "Armature"
        {
            over "Action"
            {
                # 원본 클립의 Hip 루트 이동이 반복 경계에서 되감기지 않도록
                # 관절 translation을 첫 프레임에 고정한다. NPC 위치 이동은 Swift wrapper가 담당한다.
                float3[] translations = [(0.00930502, -0.0438346, 3.6583316e-7), (0.009305087, -0.04383452, 0.5059749), (-5.9604645e-8, 1.1920929e-7, -5.9604645e-8), (-0.048388436, -0.0017193854, -0.0045131743), (0.000010494143, 0.24603458, 3.427267e-7), (-3.2410026e-7, 0.24576968, 0.000030614436), (-7.450581e-9, 0.030738719, 7.450581e-9), (7.450581e-9, -0.00014346838, 2.2351742e-8), (-7.450581e-9, 0.10254674, 2.2351742e-8), (1.8626451e-8, -0.00012284517, 0), (0, 0.12301734, 0), (0.048394404, 0.0012487769, 0.00460881), (-7.450581e-9, -0.000117242336, -5.9604645e-8), (0, 0.117136985, -2.9802322e-8), (-5.5134296e-7, 0.2342985, 0.000003695488), (0.0000025555491, 0.25869018, 0.000035829842), (3.7252903e-9, 0.036072757, 1.4901161e-8), (0, -0.00015088916, -7.450581e-9), (-7.450581e-9, 0.107937634, 3.7252903e-9), (0.000019580126, 0.000033289194, 0.000021398067), (1.3038516e-8, 0.04415396, -2.9802322e-8), (-1.8626451e-9, 0.088208735, 0), (3.7252903e-9, 0.0771476, 7.450581e-9), (5.5879354e-9, 0.03281015, 4.4703484e-8), (1.8626451e-9, 0.021837354, 1.4901161e-8), (-0.019956201, 0.076682925, -3.7252903e-8), (0.00014424324, 0.058345065, -0.000014003366), (-0.000009059906, 0.16309905, 1.4901161e-8), (-8.940697e-8, -0.00004339218, -1.3038516e-8), (0, 0.043480366, 1.8626451e-9), (0.000004053116, 0.08689925, 0.0000026356429), (-2.9802322e-8, -0.000081539154, -2.9802322e-8), (2.0861626e-7, 0.08158791, -1.4901161e-8), (0.019956294, 0.07754737, 7.450581e-9), (-0.00011509657, 0.057335086, 0.000026079826), (4.4703484e-8, -0.00007367134, 7.450581e-9), (4.4703484e-8, 0.073590994, 7.450581e-9), (0.000025078654, 0.14711964, 0.0000020116568), (8.940697e-8, -0.00004428625, 2.2351742e-8), (0, 0.044305623, -1.4901161e-8), (-0.000010415912, 0.088549614, -0.0000033453107)]
            }
        }
    }
}
