#usda 1.0
(
    defaultPrim = "root"
    startTimeCode = 1
    endTimeCode = 250
    metersPerUnit = 1
    timeCodesPerSecond = 24
    upAxis = "Y"
)

def Xform "root" (
    references = @Default.usdz@
)
{
    over "Armature"
    {
        over "Armature"
        {
            over "Action"
            {
                # 원본 클립의 Hip 루트 이동이 반복 경계에서 되감기지 않도록
                # 관절 translation을 첫 프레임에 고정한다. NPC 위치 이동은 Swift wrapper가 담당한다.
                float3[] translations = [(0.00930502, -0.0438346, 3.6583316e-7), (0.009305025, -0.043834623, 0.5113376), (-2.9802322e-8, 8.940697e-8, -8.940697e-8), (-0.04838844, -0.0017195046, -0.004513189), (0.000010481104, 0.24603459, 3.5762787e-7), (-3.296882e-7, 0.24576965, 0.000030614436), (-7.450581e-9, 0.030738734, 9.313226e-9), (5.5879354e-9, -0.00014352798, 7.450581e-9), (-1.3038516e-8, 0.10254675, 2.9802322e-8), (9.313226e-9, -0.00012284517, 7.450581e-9), (1.8626451e-9, 0.12301731, -7.450581e-9), (0.048394404, 0.0012487471, 0.00460881), (-6.1118044e-10, -0.00011715293, -1.4901161e-8), (-6.4610504e-9, 0.117136985, 1.4901161e-8), (-5.463662e-7, 0.2342986, 0.0000037401915), (0.0000025480986, 0.25869015, 0.000035833567), (-9.313226e-10, 0.03607278, 3.7252903e-9), (1.8626451e-9, -0.00015094876, -1.1175871e-8), (-7.450581e-9, 0.10793762, 0), (0.000019550323, 0.00003322959, 0.000021368265), (1.4901161e-8, 0.04415393, -1.4901161e-8), (-1.8626451e-9, 0.088208795, -1.4901161e-8), (-2.7939677e-9, 0.0771476, 7.450581e-9), (4.656613e-10, 0.03281021, 2.9802322e-8), (3.7252903e-9, 0.021837473, -4.4703484e-8), (-0.019956242, 0.07668275, -2.2351742e-8), (0.00014412403, 0.05834502, -0.000014003366), (-0.0000091046095, 0.16309905, 3.1199306e-8), (-1.4901161e-7, -0.00004348159, -2.9802322e-8), (2.9802322e-8, 0.043480366, -1.4901161e-8), (0.000003963709, 0.08689913, 0.0000026375055), (-5.9604645e-8, -0.00008165836, -1.3504177e-8), (2.0861626e-7, 0.08158791, -4.1909516e-9), (0.019956289, 0.07754737, 7.450581e-9), (-0.000115036964, 0.05733516, 0.000026107475), (4.4703484e-8, -0.00007367134, 0), (2.9802322e-8, 0.07359111, 1.3038516e-8), (0.000025078654, 0.14711958, 0.0000020116568), (1.1920929e-7, -0.000044375658, 1.4901161e-8), (1.1920929e-7, 0.044305563, -3.7252903e-8), (-0.000010430813, 0.088549584, -0.0000033900142)]
            }
        }
    }
}
